<svg width="100" height="26" viewBox="0 0 100 26" fill="none" xmlns="http://www.w3.org/2000/svg">
<path d="M43.3663 12.3203H39.3527V11.0801H45.0851V19H44.2257L43.7081 16.9199C43.63 17.252 43.4835 17.5677 43.2687 17.8672C43.0538 18.1667 42.7641 18.4303 42.3995 18.6582C42.035 18.8861 41.589 19.0651 41.0616 19.1953C40.5408 19.332 39.9353 19.4004 39.2452 19.4004C38.2101 19.4004 37.3019 19.1986 36.5206 18.7949C35.7394 18.3913 35.0851 17.8314 34.5577 17.1152C34.0369 16.3991 33.643 15.5462 33.3761 14.5566C33.1157 13.5671 32.9855 12.4896 32.9855 11.3242C32.9855 9.95703 33.1352 8.76888 33.4347 7.75977C33.7342 6.75065 34.1671 5.91406 34.7335 5.25C35.2999 4.58594 35.99 4.09115 36.8038 3.76562C37.6176 3.4401 38.5389 3.27734 39.5675 3.27734C39.9451 3.27734 40.3292 3.30339 40.7199 3.35547C41.1105 3.40104 41.4946 3.47591 41.8722 3.58008C42.2563 3.68424 42.6274 3.82096 42.9855 3.99023C43.3501 4.15299 43.6951 4.35156 44.0206 4.58594L43.3761 5.9043C43.1938 5.74805 42.9692 5.60156 42.7023 5.46484C42.4353 5.32812 42.1326 5.20768 41.7941 5.10352C41.4555 4.99935 41.0877 4.91797 40.6906 4.85938C40.2999 4.79427 39.8865 4.76172 39.4503 4.76172C38.7146 4.76172 38.0669 4.89193 37.507 5.15234C36.9471 5.40625 36.4751 5.80013 36.0909 6.33398C35.7133 6.86784 35.4269 7.54492 35.2316 8.36523C35.0428 9.17904 34.9484 10.1458 34.9484 11.2656C34.9484 12.3333 35.0265 13.2806 35.1827 14.1074C35.339 14.9277 35.5929 15.6211 35.9445 16.1875C36.296 16.7539 36.7583 17.1836 37.3312 17.4766C37.9041 17.7695 38.6072 17.916 39.4406 17.916C40.0005 17.916 40.518 17.8672 40.9933 17.7695C41.4751 17.6719 41.8917 17.5124 42.2433 17.291C42.5949 17.0632 42.8683 16.7734 43.0636 16.4219C43.2654 16.0638 43.3663 15.6243 43.3663 15.1035V12.3203ZM51.9921 8.7168C51.6992 8.7168 51.3899 8.74284 51.0644 8.79492C50.7454 8.84701 50.4264 8.92513 50.1074 9.0293C49.7949 9.12695 49.4889 9.25065 49.1894 9.40039C48.8964 9.54362 48.6295 9.70964 48.3886 9.89844L47.7245 8.60938C48.0956 8.40755 48.4407 8.23177 48.7597 8.08203C49.0787 7.92578 49.401 7.79557 49.7265 7.69141C50.0585 7.58724 50.4036 7.50911 50.7617 7.45703C51.1262 7.40495 51.5364 7.37891 51.9921 7.37891C52.9752 7.37891 53.7597 7.48633 54.3456 7.70117C54.9381 7.91602 55.3873 8.24805 55.6933 8.69727C56.0058 9.14648 56.2076 9.7194 56.2988 10.416C56.3964 11.1126 56.4452 11.9427 56.4452 12.9062V19H55.0781L54.8046 17.2617C54.3228 17.9388 53.7499 18.4303 53.0859 18.7363C52.4218 19.0423 51.6764 19.1953 50.8495 19.1953C50.2636 19.1953 49.733 19.1204 49.2577 18.9707C48.789 18.821 48.3886 18.5996 48.0566 18.3066C47.7245 18.0072 47.4674 17.6361 47.2851 17.1934C47.1093 16.7507 47.0214 16.2363 47.0214 15.6504C47.0214 15.084 47.1288 14.5762 47.3437 14.127C47.5585 13.6777 47.8482 13.2969 48.2128 12.9844C48.5774 12.6719 49.0006 12.4342 49.4824 12.2715C49.9641 12.1022 50.4719 12.0176 51.0058 12.0176C51.5396 12.0176 52.0247 12.0436 52.4609 12.0957C52.9036 12.1478 53.2812 12.2064 53.5937 12.2715C53.9127 12.3301 54.1601 12.3854 54.3359 12.4375L54.5898 12.5059C54.5898 11.8353 54.5768 11.2591 54.5507 10.7773C54.5247 10.2956 54.4303 9.90495 54.2675 9.60547C54.1047 9.29948 53.8476 9.07487 53.496 8.93164C53.1445 8.78841 52.6432 8.7168 51.9921 8.7168ZM51.3085 17.8574C51.901 17.8574 52.4609 17.7305 52.9882 17.4766C53.5221 17.2227 54.0559 16.8483 54.5898 16.3535V13.4434C54.3163 13.4043 54.0494 13.3717 53.789 13.3457C53.5611 13.3197 53.317 13.2969 53.0566 13.2773C52.7962 13.2513 52.552 13.2383 52.3242 13.2383C51.8554 13.2383 51.4127 13.2643 50.996 13.3164C50.5794 13.362 50.2148 13.4661 49.9023 13.6289C49.5898 13.7917 49.3424 14.026 49.1601 14.332C48.9778 14.638 48.8867 15.0449 48.8867 15.5527C48.8867 16.0085 48.9452 16.3861 49.0624 16.6855C49.1796 16.9785 49.3424 17.2129 49.5507 17.3887C49.7656 17.5645 50.0195 17.6882 50.3124 17.7598C50.6119 17.8249 50.9439 17.8574 51.3085 17.8574ZM60.8523 19H58.9968V3.58008L60.8523 3.23828V19ZM65.5132 19H63.6577V3.58008L65.5132 3.23828V19ZM76.5902 18.0137C76.3297 18.2025 76.0335 18.3717 75.7015 18.5215C75.3695 18.6647 75.0309 18.7884 74.6859 18.8926C74.3473 18.9902 74.0185 19.0651 73.6995 19.1172C73.3805 19.1693 73.1071 19.1953 72.8792 19.1953C72.0199 19.1953 71.2679 19.0521 70.6234 18.7656C69.9853 18.4792 69.4547 18.0788 69.0316 17.5645C68.6084 17.0436 68.2894 16.4284 68.0745 15.7188C67.8662 15.0026 67.762 14.2148 67.762 13.3555C67.762 12.5807 67.863 11.8353 68.0648 11.1191C68.2731 10.3965 68.5791 9.75846 68.9827 9.20508C69.3864 8.65169 69.8877 8.20898 70.4866 7.87695C71.0856 7.54492 71.7822 7.37891 72.5765 7.37891C73.3187 7.37891 73.9697 7.49284 74.5296 7.7207C75.096 7.94206 75.5713 8.26432 75.9554 8.6875C76.3395 9.11068 76.6292 9.62826 76.8245 10.2402C77.0199 10.8522 77.1175 11.5456 77.1175 12.3203C77.1175 12.5286 77.111 12.7305 77.098 12.9258C77.085 13.1146 77.0654 13.2936 77.0394 13.4629H69.6175C69.6175 14.2767 69.6956 14.9635 69.8519 15.5234C70.0081 16.0833 70.2327 16.5358 70.5257 16.8809C70.8187 17.2259 71.1768 17.4766 71.5999 17.6328C72.0231 17.7826 72.5016 17.8574 73.0355 17.8574C73.348 17.8574 73.6344 17.8346 73.8949 17.7891C74.1553 17.737 74.3994 17.6654 74.6273 17.5742C74.8616 17.4766 75.0863 17.3561 75.3011 17.2129C75.5225 17.0697 75.7503 16.9036 75.9847 16.7148L76.5902 18.0137ZM75.4769 11.998C75.4769 11.4772 75.4118 11.015 75.2816 10.6113C75.1514 10.2012 74.9691 9.85612 74.7347 9.57617C74.5003 9.29622 74.2204 9.08464 73.8949 8.94141C73.5758 8.79167 73.2243 8.7168 72.8402 8.7168C72.3258 8.7168 71.8766 8.8112 71.4925 9C71.1084 9.1888 70.7829 9.44596 70.5159 9.77148C70.2555 10.097 70.0505 10.4811 69.9007 10.9238C69.7575 11.36 69.6631 11.832 69.6175 12.3398H75.4769V11.998ZM80.7433 9.45898C80.9646 9.18555 81.1893 8.92188 81.4171 8.66797C81.645 8.41406 81.8826 8.19271 82.13 8.00391C82.3839 7.8151 82.6541 7.66536 82.9406 7.55469C83.227 7.4375 83.5428 7.37891 83.8878 7.37891C84.2524 7.37891 84.5779 7.41797 84.8644 7.49609V8.98047C84.8514 8.97396 84.8156 8.96745 84.757 8.96094C84.6984 8.95443 84.6235 8.95117 84.5324 8.95117C84.4412 8.94466 84.337 8.94141 84.2199 8.94141C84.1027 8.94141 83.9855 8.94141 83.8683 8.94141C83.5949 8.94141 83.3247 8.98698 83.0577 9.07812C82.7908 9.16927 82.5304 9.28971 82.2765 9.43945C82.0291 9.58268 81.7882 9.7487 81.5538 9.9375C81.326 10.1198 81.1111 10.3086 80.9093 10.5039V19H79.0538V7.58398H80.4503L80.7433 9.45898ZM85.6386 7.58398H87.4159L90.8827 16.5684L93.8222 7.58398H95.7265L91.4589 19.3613C91.2766 19.8626 91.0748 20.3053 90.8534 20.6895C90.6386 21.0801 90.414 21.4186 90.1796 21.7051C89.9452 21.9915 89.7109 22.2357 89.4765 22.4375C89.2421 22.6393 89.0143 22.8053 88.7929 22.9355C88.2786 23.248 87.7545 23.4303 87.2206 23.4824L86.7226 22.2617C87.1067 22.1706 87.4648 22.0469 87.7968 21.8906C88.1288 21.7409 88.4316 21.5326 88.705 21.2656C88.9784 20.9987 89.2258 20.6634 89.4472 20.2598C89.6751 19.8561 89.8736 19.3613 90.0429 18.7754L85.6386 7.58398Z" fill="#675656"/>
<path fill-rule="evenodd" clip-rule="evenodd" d="M12.9809 2.40741H7.15256e-06L5.46567 7.82853H18.4466L12.9809 2.40741ZM5.46566 7.82854V20.7037L0 15.2826V2.40741L5.46566 7.82854Z" fill="#CCCCCC"/>
<path fill-rule="evenodd" clip-rule="evenodd" d="M5.46564 20.7037H18.4466L12.9809 15.2826L-1.71661e-05 15.2826L5.46564 20.7037ZM12.9809 15.2826L12.9809 2.40741L18.4466 7.82853V20.7037L12.9809 15.2826Z" fill="#675656"/>
</svg>
